<svg width="132" height="132" viewBox="0 0 132 132" fill="none" xmlns="http://www.w3.org/2000/svg">
<path d="M70.4 115.113V52.9297H61.6V115.113L47.3324 100.811L41.1097 107.048L66 132L90.8903 107.048L84.6675 100.811L70.4 115.113Z" fill="#202632"/>
<path d="M105.6 39.6973C105.6 17.8086 87.835 0 66 0C44.165 0 26.4 17.8086 26.4 39.6973C19.3983 39.6973 12.6833 42.4855 7.73238 47.4486C2.78142 52.4118 0 59.1432 0 66.1621C0 73.181 2.78142 79.9125 7.73238 84.8756C12.6833 89.8387 19.3983 92.6269 26.4 92.6269H48.4V83.8053H26.4C21.7322 83.8053 17.2556 81.9465 13.9549 78.6377C10.6543 75.329 8.8 70.8414 8.8 66.1621C8.8 61.4828 10.6543 56.9952 13.9549 53.6865C17.2556 50.3777 21.7322 48.5189 26.4 48.5189H35.2V39.6973C35.2 31.5085 38.445 23.6552 44.2211 17.8649C49.9972 12.0746 57.8313 8.82161 66 8.82161C74.1687 8.82161 82.0028 12.0746 87.7789 17.8649C93.555 23.6552 96.8 31.5085 96.8 39.6973V48.5189H105.6C110.268 48.5189 114.744 50.3777 118.045 53.6865C121.346 56.9952 123.2 61.4828 123.2 66.1621C123.2 70.8414 121.346 75.329 118.045 78.6377C114.744 81.9465 110.268 83.8053 105.6 83.8053H83.6V92.6269H105.6C112.602 92.6269 119.317 89.8387 124.268 84.8756C129.219 79.9125 132 73.181 132 66.1621C132 59.1432 129.219 52.4118 124.268 47.4486C119.317 42.4855 112.602 39.6973 105.6 39.6973Z" fill="#202632"/>
</svg>
