<svg width="38" height="48" viewBox="0 0 38 48" fill="none" xmlns="http://www.w3.org/2000/svg">
<path d="M20.9547 31.1647C19.7268 31.1647 19.0167 32.3309 19.0167 33.8865C19.0167 35.4564 19.7553 36.5607 20.9642 36.5607C22.192 36.5607 22.8927 35.397 22.8927 33.839C22.8927 32.4045 22.2015 31.1647 20.9547 31.1647Z" fill="#36404E"/>
<path d="M23.75 0H4.75C3.49022 0 2.28204 0.500445 1.39124 1.39124C0.500445 2.28204 0 3.49022 0 4.75V42.75C0 44.0098 0.500445 45.218 1.39124 46.1088C2.28204 46.9996 3.49022 47.5 4.75 47.5H33.25C34.5098 47.5 35.718 46.9996 36.6088 46.1088C37.4996 45.218 38 44.0098 38 42.75V14.25L23.75 0ZM9.55225 34.922C9.55225 37.2044 8.45738 38 6.70225 38C6.28425 38 5.738 37.9311 5.37937 37.81L5.58362 36.3494C5.83062 36.4325 6.15125 36.4919 6.51225 36.4919C7.26988 36.4919 7.74725 36.1475 7.74725 34.9006V29.8609H9.55462V34.922H9.55225ZM13.0174 37.9881C12.103 37.9881 11.1981 37.7506 10.7493 37.5013L11.1174 36.0026C11.6019 36.252 12.3548 36.5038 13.1266 36.5038C13.9579 36.5038 14.3949 36.157 14.3949 35.6369C14.3949 35.1357 14.0172 34.8507 13.0554 34.5064C11.7206 34.0432 10.8537 33.3046 10.8537 32.1409C10.8537 30.7729 11.9961 29.7255 13.8866 29.7255C14.7891 29.7255 15.4518 29.9155 15.9315 30.1316L15.523 31.5923C15.2024 31.4379 14.6324 31.2122 13.8486 31.2122C13.0649 31.2122 12.6825 31.5685 12.6825 31.9841C12.6825 32.4948 13.1337 32.7227 14.1716 33.1146C15.5871 33.6371 16.2521 34.3734 16.2521 35.5039C16.2545 36.8481 15.2166 37.9881 13.0174 37.9881ZM20.8691 38C18.4917 38 17.1024 36.2069 17.1024 33.9245C17.1024 31.521 18.6366 29.7255 21.0021 29.7255C23.4603 29.7255 24.8045 31.5685 24.8045 33.7796C24.8021 36.4087 23.2109 38 20.8691 38ZM32.6182 37.8694H30.7135L29.0011 34.7771C28.4889 33.86 28.0251 32.9166 27.6118 31.9509L27.5737 31.9627C27.6236 33.0196 27.6474 34.1501 27.6474 35.4588V37.8717H25.9825V29.8609H28.0986L29.7635 32.7964C30.2385 33.6371 30.7135 34.637 31.0745 35.5395H31.1077C30.989 34.4826 30.9534 33.402 30.9534 32.2002V29.8609H32.6206V37.8694H32.6182ZM23.75 16.625H21.375V4.75L33.25 16.625H23.75Z" fill="#36404E"/>
</svg>
