<svg width="202" height="38" viewBox="0 0 202 38" fill="none" xmlns="http://www.w3.org/2000/svg">
<path d="M6.144 31.416C5.20533 31.416 4.30933 31.2987 3.456 31.064C2.60267 30.8507 1.81333 30.5733 1.088 30.232V25.496C1.81333 25.9867 2.47467 26.4027 3.072 26.744C3.66933 27.0853 4.27733 27.256 4.896 27.256C5.792 27.256 6.50667 27.0213 7.04 26.552C7.57333 26.0827 7.84 25.3253 7.84 24.28V9.656H13.024V24.504C13.024 25.848 12.8213 26.968 12.416 27.864C12.0107 28.7387 11.4773 29.4427 10.816 29.976C10.176 30.488 9.44 30.8507 8.608 31.064C7.79733 31.2987 6.976 31.416 6.144 31.416ZM22.1933 31.48C21.0413 31.48 20.0493 31.352 19.2173 31.096C18.4066 30.8613 17.6386 30.5947 16.9133 30.296V26.104C17.3613 26.4027 17.8626 26.712 18.4173 27.032C18.9719 27.3307 19.5799 27.576 20.2413 27.768C20.9239 27.96 21.6386 28.056 22.3853 28.056C23.1533 28.056 23.6866 27.928 23.9853 27.672C24.3053 27.3947 24.4653 27.064 24.4653 26.68C24.4653 26.3173 24.3053 26.0293 23.9853 25.816C23.6653 25.5813 23.2493 25.3893 22.7373 25.24C22.2253 25.0907 21.6813 24.952 21.1053 24.824C20.5933 24.7173 20.0813 24.5573 19.5693 24.344C19.0573 24.1093 18.5986 23.8 18.1933 23.416C17.7879 23.032 17.4573 22.5627 17.2013 22.008C16.9666 21.432 16.8493 20.7387 16.8493 19.928C16.8493 18.8827 17.0519 18.0187 17.4573 17.336C17.8626 16.632 18.3959 16.0667 19.0573 15.64C19.7186 15.2133 20.4333 14.9147 21.2013 14.744C21.9693 14.552 22.7159 14.4667 23.4413 14.488C24.7639 14.5307 25.8093 14.68 26.5773 14.936C27.3666 15.1707 28.0813 15.48 28.7213 15.864V19.608C27.9959 19.2027 27.2706 18.8293 26.5453 18.488C25.8413 18.1253 25.0306 17.944 24.1133 17.944C23.2813 17.944 22.6839 18.072 22.3213 18.328C21.9586 18.584 21.7773 18.9253 21.7773 19.352C21.7773 19.7573 21.8946 20.0773 22.1293 20.312C22.3853 20.5467 22.7159 20.7387 23.1213 20.888C23.5266 21.016 23.9746 21.144 24.4653 21.272C24.9986 21.4 25.5426 21.56 26.0973 21.752C26.6733 21.9227 27.2066 22.1787 27.6973 22.52C28.2093 22.84 28.6146 23.2987 28.9133 23.896C29.2333 24.472 29.3933 25.24 29.3933 26.2C29.3719 27.5013 29.0199 28.5467 28.3373 29.336C27.6546 30.104 26.7693 30.6587 25.6813 31C24.6146 31.32 23.4519 31.48 22.1933 31.48ZM40.1267 31.48C37.3961 31.48 35.3374 30.7547 33.9508 29.304C32.5854 27.832 31.9028 25.6773 31.9028 22.84C31.9028 19.7893 32.5961 17.6027 33.9828 16.28C35.3908 14.936 37.4388 14.264 40.1267 14.264C41.9401 14.264 43.4548 14.5733 44.6708 15.192C45.9081 15.7893 46.8361 16.7173 47.4548 17.976C48.0948 19.2347 48.4148 20.856 48.4148 22.84C48.4148 25.6773 47.7001 27.832 46.2708 29.304C44.8414 30.7547 42.7934 31.48 40.1267 31.48ZM40.1267 27.672C40.9161 27.672 41.5668 27.4907 42.0788 27.128C42.6121 26.744 43.0068 26.2 43.2628 25.496C43.5401 24.7707 43.6788 23.8853 43.6788 22.84C43.6788 21.6453 43.5401 20.7067 43.2628 20.024C43.0068 19.32 42.6121 18.8187 42.0788 18.52C41.5454 18.2 40.8948 18.04 40.1267 18.04C39.3161 18.04 38.6548 18.2 38.1428 18.52C37.6308 18.84 37.2468 19.352 36.9908 20.056C36.7561 20.7387 36.6388 21.6667 36.6388 22.84C36.6388 24.4613 36.9161 25.6773 37.4708 26.488C38.0468 27.2773 38.9321 27.672 40.1267 27.672ZM51.7057 16.184C52.1111 15.9707 52.6444 15.7573 53.3058 15.544C53.9671 15.3093 54.6924 15.1067 55.4818 14.936C56.2711 14.7653 57.0604 14.6267 57.8498 14.52C58.6604 14.4133 59.4071 14.36 60.0898 14.36C61.5404 14.36 62.7778 14.552 63.8018 14.936C64.8258 15.2987 65.6044 15.896 66.1378 16.728C66.6924 17.56 66.9698 18.6907 66.9698 20.12V31H62.2018V21.08C62.2018 20.6747 62.1378 20.3013 62.0098 19.96C61.9031 19.6187 61.7324 19.3307 61.4978 19.096C61.2631 18.84 60.9431 18.648 60.5378 18.52C60.1324 18.3707 59.6418 18.296 59.0658 18.296C58.5751 18.296 58.0844 18.36 57.5938 18.488C57.1031 18.5947 56.7298 18.712 56.4738 18.84V31H51.7057V16.184ZM75.8458 31V13.656H69.8618V9.656H87.1098V13.656H81.0298V31H75.8458ZM94.658 31.48C91.9273 31.48 89.8687 30.7547 88.482 29.304C87.1167 27.832 86.434 25.6773 86.434 22.84C86.434 19.7893 87.1273 17.6027 88.514 16.28C89.922 14.936 91.97 14.264 94.658 14.264C96.4713 14.264 97.986 14.5733 99.202 15.192C100.439 15.7893 101.367 16.7173 101.986 17.976C102.626 19.2347 102.946 20.856 102.946 22.84C102.946 25.6773 102.231 27.832 100.802 29.304C99.3727 30.7547 97.3247 31.48 94.658 31.48ZM94.658 27.672C95.4473 27.672 96.098 27.4907 96.61 27.128C97.1433 26.744 97.538 26.2 97.794 25.496C98.0713 24.7707 98.21 23.8853 98.21 22.84C98.21 21.6453 98.0713 20.7067 97.794 20.024C97.538 19.32 97.1433 18.8187 96.61 18.52C96.0767 18.2 95.426 18.04 94.658 18.04C93.8473 18.04 93.186 18.2 92.674 18.52C92.162 18.84 91.778 19.352 91.522 20.056C91.2873 20.7387 91.17 21.6667 91.17 22.84C91.17 24.4613 91.4473 25.6773 92.002 26.488C92.578 27.2773 93.4633 27.672 94.658 27.672ZM115.837 31.416C112.424 31.416 109.81 30.52 107.997 28.728C106.205 26.9147 105.309 24.12 105.309 20.344C105.309 16.6747 106.173 13.9013 107.901 12.024C109.629 10.1253 112.274 9.176 115.837 9.176C116.968 9.176 118.109 9.31467 119.261 9.592C120.413 9.86933 121.533 10.2533 122.621 10.744V15.256C121.512 14.5307 120.445 14.008 119.421 13.688C118.397 13.368 117.437 13.208 116.541 13.208C115.282 13.208 114.216 13.432 113.341 13.88C112.488 14.328 111.826 15.0747 111.357 16.12C110.909 17.1653 110.685 18.5733 110.685 20.344C110.685 22.1147 110.909 23.512 111.357 24.536C111.826 25.56 112.509 26.296 113.405 26.744C114.322 27.1707 115.442 27.384 116.765 27.384C117.554 27.384 118.45 27.2347 119.453 26.936C120.456 26.6373 121.512 26.1253 122.621 25.4V29.912C122.024 30.2107 121.341 30.4773 120.573 30.712C119.826 30.9253 119.037 31.096 118.205 31.224C117.394 31.352 116.605 31.416 115.837 31.416ZM131.193 31.48C130.041 31.48 129.049 31.352 128.217 31.096C127.407 30.8613 126.639 30.5947 125.913 30.296V26.104C126.361 26.4027 126.863 26.712 127.417 27.032C127.972 27.3307 128.58 27.576 129.241 27.768C129.924 27.96 130.639 28.056 131.385 28.056C132.153 28.056 132.687 27.928 132.985 27.672C133.305 27.3947 133.465 27.064 133.465 26.68C133.465 26.3173 133.305 26.0293 132.985 25.816C132.665 25.5813 132.249 25.3893 131.737 25.24C131.225 25.0907 130.681 24.952 130.105 24.824C129.593 24.7173 129.081 24.5573 128.569 24.344C128.057 24.1093 127.599 23.8 127.193 23.416C126.788 23.032 126.457 22.5627 126.201 22.008C125.967 21.432 125.849 20.7387 125.849 19.928C125.849 18.8827 126.052 18.0187 126.457 17.336C126.863 16.632 127.396 16.0667 128.057 15.64C128.719 15.2133 129.433 14.9147 130.201 14.744C130.969 14.552 131.716 14.4667 132.441 14.488C133.764 14.5307 134.809 14.68 135.577 14.936C136.367 15.1707 137.081 15.48 137.721 15.864V19.608C136.996 19.2027 136.271 18.8293 135.545 18.488C134.841 18.1253 134.031 17.944 133.113 17.944C132.281 17.944 131.684 18.072 131.321 18.328C130.959 18.584 130.777 18.9253 130.777 19.352C130.777 19.7573 130.895 20.0773 131.129 20.312C131.385 20.5467 131.716 20.7387 132.121 20.888C132.527 21.016 132.975 21.144 133.465 21.272C133.999 21.4 134.543 21.56 135.097 21.752C135.673 21.9227 136.207 22.1787 136.697 22.52C137.209 22.84 137.615 23.2987 137.913 23.896C138.233 24.472 138.393 25.24 138.393 26.2C138.372 27.5013 138.02 28.5467 137.337 29.336C136.655 30.104 135.769 30.6587 134.681 31C133.615 31.32 132.452 31.48 131.193 31.48ZM147.239 31L140.487 14.808H145.671L150.567 27.288L149.415 27.32L153.767 14.808H158.791L152.039 31H147.239Z" fill="#202632"/>
<path d="M200.041 7.58099L186.046 1.03999C185.285 0.684662 184.456 0.500417 183.617 0.500244C182.778 0.500071 181.949 0.683975 181.189 1.03899L167.326 7.50899C166.93 7.69364 166.595 7.98734 166.36 8.35563C166.126 8.72392 166.001 9.1515 166.001 9.58817C166.001 10.0248 166.125 10.4525 166.36 10.8209C166.594 11.1893 166.929 11.4832 167.325 11.668L181.32 18.209C182.08 18.5645 182.909 18.7489 183.748 18.7492C184.587 18.7496 185.416 18.5659 186.177 18.211L200.04 11.74C200.435 11.5553 200.77 11.2616 201.005 10.8934C201.239 10.5251 201.364 10.0975 201.364 9.66081C201.364 9.22414 201.24 8.7965 201.005 8.4281C200.771 8.0597 200.436 7.76583 200.041 7.58099V7.58099Z" stroke="black" stroke-linecap="round" stroke-linejoin="round"/>
<path d="M172.91 14.278L167.326 16.884C166.93 17.0685 166.595 17.3623 166.36 17.7307C166.125 18.0991 166 18.5268 166 18.9637C166 19.4006 166.124 19.8284 166.359 20.1969C166.594 20.5654 166.929 20.8593 167.325 21.044L181.32 27.584C182.08 27.9395 182.909 28.1239 183.748 28.1243C184.587 28.1246 185.416 27.9409 186.177 27.586L200.04 21.116C200.435 20.9314 200.77 20.6377 201.005 20.2694C201.239 19.9011 201.364 19.4735 201.364 19.0368C201.364 18.6002 201.24 18.1725 201.005 17.8041C200.771 17.4357 200.436 17.1419 200.041 16.957L194.456 14.347" stroke="black" stroke-linecap="round" stroke-linejoin="round"/>
<path d="M172.91 23.654L167.326 26.26C166.93 26.4445 166.595 26.7382 166.36 27.1066C166.125 27.475 166 27.9028 166 28.3397C166 28.7765 166.124 29.2044 166.359 29.5729C166.594 29.9414 166.929 30.2353 167.325 30.42L181.32 36.96C182.08 37.3153 182.909 37.4996 183.748 37.4997C184.587 37.4999 185.416 37.316 186.177 36.961L200.04 30.491C200.435 30.3063 200.77 30.0126 201.005 29.6444C201.239 29.2761 201.364 28.8485 201.364 28.4118C201.364 27.9751 201.24 27.5475 201.005 27.1791C200.771 26.8107 200.436 26.5168 200.041 26.332L194.456 23.722" stroke="black" stroke-linecap="round" stroke-linejoin="round"/>
<path d="M186.662 15.6611H188.85C189.153 15.6613 189.452 15.7378 189.719 15.8838C189.986 16.0297 190.213 16.2405 190.38 16.4973C190.547 16.7541 190.648 17.0489 190.675 17.3553C190.702 17.6617 190.654 17.9701 190.535 18.2529L185.693 29.7152C185.576 29.9897 185.369 30.2149 185.108 30.3531C184.846 30.4912 184.546 30.5338 184.257 30.4737C183.968 30.4136 183.709 30.2544 183.522 30.023C183.336 29.7916 183.233 29.502 183.232 29.203V20.6215L181.456 20.5657C180.98 20.5496 180.529 20.3466 180.198 19.9994C179.867 19.6523 179.682 19.1883 179.683 18.7055V11.3604C179.683 10.8671 179.876 10.3939 180.22 10.0451C180.564 9.69622 181.03 9.50024 181.517 9.50024H184.828C185.315 9.50024 185.781 9.69622 186.125 10.0451C186.469 10.3939 186.662 10.8671 186.662 11.3604V15.6611Z" fill="#202632"/>
</svg>
