<svg width="71" height="83" viewBox="0 0 71 83" fill="none" xmlns="http://www.w3.org/2000/svg">
<path fill-rule="evenodd" clip-rule="evenodd" d="M71 23.3321V72.5887C71 75.339 69.9314 77.9766 68.0292 79.9213C66.1271 81.866 63.5472 82.9585 60.8571 82.9585H55.7857V77.7736H60.8571C62.2022 77.7736 63.4921 77.2274 64.4432 76.255C65.3943 75.2826 65.9286 73.9638 65.9286 72.5887V23.3321H55.7857C53.7682 23.3321 51.8333 22.5127 50.4067 21.0541C48.98 19.5956 48.1786 17.6174 48.1786 15.5547V5.18491H20.2857C18.9407 5.18491 17.6508 5.73117 16.6997 6.70353C15.7486 7.67589 15.2143 8.99469 15.2143 10.3698V57.034H10.1429V10.3698C10.1429 7.61957 11.2115 4.98197 13.1136 3.03725C15.0158 1.09253 17.5957 0 20.2857 0L48.1786 0L71 23.3321ZM17.8362 76.9492C17.8652 77.7662 18.0612 78.5679 18.4114 79.3028C18.7617 80.0377 19.2585 80.6895 19.8699 81.2164C20.5291 81.7764 21.3355 82.2119 22.294 82.523C23.2576 82.8393 24.3784 82.9948 25.6665 82.9948C27.3806 82.9948 28.8311 82.72 30.0229 82.1756C31.2197 81.6312 32.1326 80.869 32.7564 79.8942C33.3903 78.9143 33.7047 77.7788 33.7047 76.493C33.7047 75.3315 33.4765 74.3671 33.0251 73.5894C32.561 72.8126 31.9051 72.1742 31.1234 71.7384C30.2251 71.231 29.2575 70.864 28.2529 70.6496L25.1036 69.9029C24.3612 69.7635 23.6601 69.4512 23.0547 68.9904C22.8233 68.808 22.6368 68.5728 22.51 68.3036C22.3832 68.0345 22.3197 67.7388 22.3244 67.4401C22.3244 66.6312 22.6389 65.9676 23.2626 65.4491C23.8966 64.9254 24.7638 64.661 25.8592 64.661C26.5844 64.661 27.2082 64.7802 27.7356 65.0136C28.2211 65.2159 28.6498 65.5384 28.9832 65.952C29.2953 66.3369 29.505 66.7977 29.5918 67.2897H33.3954C33.3321 66.2338 32.9807 65.2172 32.3811 64.3551C31.7401 63.4244 30.8636 62.6896 29.8454 62.2293C28.6 61.6707 27.249 61.4016 25.8896 61.4412C24.4037 61.4412 23.0953 61.7004 21.9542 62.2189C20.8131 62.7322 19.9256 63.4633 19.2816 64.4017C18.6375 65.3454 18.318 66.4498 18.318 67.7149C18.318 68.7571 18.5209 69.6644 18.9367 70.4318C19.3526 71.2043 19.951 71.8317 20.7219 72.3346C21.4927 72.8272 22.4056 73.2005 23.4554 73.439L26.5895 74.1857C27.6393 74.4397 28.4203 74.7716 28.9376 75.1863C29.1903 75.3833 29.3925 75.6399 29.5267 75.9344C29.661 76.2288 29.7234 76.5521 29.7084 76.8766C29.7182 77.4111 29.5678 77.9358 29.2774 78.3802C28.9508 78.8354 28.5013 79.1833 27.9841 79.3809C27.4212 79.6246 26.7214 79.7439 25.8896 79.7439C25.2963 79.7439 24.7587 79.6765 24.2668 79.5365C23.8185 79.4095 23.3936 79.208 23.0091 78.9402C22.6715 78.7168 22.3824 78.4248 22.1599 78.0822C21.9375 77.7397 21.7863 77.354 21.7159 76.9492H17.8362ZM4.08757 70.9969C4.08757 69.7111 4.26 68.6119 4.60486 67.7149C4.90567 66.8865 5.43833 66.167 6.13643 65.6461C6.84796 65.1598 7.68977 64.9115 8.54536 64.9358C9.30607 64.9358 9.98057 65.1017 10.5638 65.4387C11.1353 65.7509 11.6124 66.2171 11.9432 66.7868C12.2967 67.3865 12.5053 68.0637 12.5518 68.7623H16.4314V68.3889C16.3978 67.4339 16.1703 66.4964 15.7635 65.6359C15.3567 64.7755 14.7793 64.0109 14.0681 63.3907C13.3396 62.7594 12.497 62.2803 11.5882 61.9804C10.5986 61.6378 9.55969 61.4678 8.51493 61.4775C6.7095 61.4775 5.16779 61.8611 3.89486 62.6337C2.627 63.4011 1.66343 64.4951 0.994 65.9105C0.334714 67.3312 0 69.0215 0 70.9866V73.5687C0 75.5337 0.324571 77.2188 0.978786 78.6291C1.64314 80.0342 2.61179 81.1179 3.87964 81.8749C5.1475 82.6267 6.68921 83 8.51493 83C10.0009 83 11.3245 82.7148 12.496 82.1497C13.6624 81.5793 14.5956 80.8016 15.2853 79.7957C15.9849 78.7662 16.3826 77.5538 16.4314 76.3011V75.9071H12.5569C12.509 76.5746 12.3037 77.2204 11.9584 77.7892C11.6205 78.3397 11.144 78.7874 10.579 79.0854C9.94574 79.3986 9.24865 79.5532 8.54536 79.5365C7.68854 79.5613 6.84413 79.3229 6.12121 78.8521C5.42675 78.3465 4.89814 77.638 4.60486 76.8196C4.23405 75.7788 4.05856 74.6759 4.08757 73.5687V71.0021V70.9969ZM45.8711 82.6008H41.038L34.2524 61.8663H38.9029L43.4469 78.1366H43.6396L48.1431 61.8663H52.6009L45.8711 82.606V82.6008Z" fill="url(#paint0_linear_2_37)"/>
<defs>
<linearGradient id="paint0_linear_2_37" x1="71" y1="-6.5" x2="36" y2="83" gradientUnits="userSpaceOnUse">
<stop stop-color="#DF75EE"/>
<stop offset="1" stop-color="#FFF886"/>
</linearGradient>
</defs>
</svg>
