<svg width="71" height="83" viewBox="0 0 71 83" fill="none" xmlns="http://www.w3.org/2000/svg">
<path fill-rule="evenodd" clip-rule="evenodd" d="M67.4749 23.3332V57.0366H62.2984V23.3332H51.9456C49.8863 23.3332 47.9113 22.5137 46.4551 21.0551C44.999 19.5965 44.1809 17.6182 44.1809 15.5554V5.18515H15.7106C14.3377 5.18515 13.0211 5.73144 12.0503 6.70384C11.0795 7.67625 10.5342 8.99511 10.5342 10.3703V57.0366H5.35773V10.3703C5.35773 7.61992 6.44847 4.9822 8.39001 3.03739C10.3315 1.09258 12.9648 0 15.7106 0L44.1809 0L67.4749 23.3332ZM16.4922 79.2809C16.1487 78.5506 15.9534 77.7593 15.9176 76.9528H19.8724C19.9443 77.3576 20.0986 77.7433 20.3257 78.0858C20.5528 78.4284 20.8478 78.7204 21.1924 78.9439C21.5548 79.1979 21.9896 79.395 22.4865 79.535C22.9783 79.6802 23.527 79.7476 24.1378 79.7476C24.9867 79.7476 25.6959 79.6283 26.2757 79.3846C26.8036 79.1869 27.2623 78.8391 27.5957 78.3839C27.8897 77.9385 28.0414 77.414 28.0305 76.8802C28.0457 76.5557 27.9821 76.2323 27.845 75.9379C27.708 75.6434 27.5016 75.3867 27.2437 75.1898C26.7208 74.775 25.9185 74.4432 24.847 74.1891L21.6479 73.4476C20.6619 73.2386 19.7185 72.8634 18.8578 72.338C18.0971 71.8714 17.4695 71.2159 17.0357 70.435C16.5954 69.5987 16.3762 68.6633 16.399 67.718C16.399 66.4529 16.7303 65.3484 17.3826 64.4047C18.0451 63.4662 18.9562 62.7351 20.1157 62.2166C21.2804 61.6981 22.6211 61.444 24.1378 61.444C25.7114 61.444 27.0573 61.7033 28.1702 62.2321C29.2935 62.761 30.158 63.4714 30.7585 64.358C31.3796 65.2395 31.7213 66.2195 31.7937 67.2928H27.9114C27.8228 66.8008 27.6088 66.34 27.2903 65.9551C26.9499 65.5414 26.5124 65.2189 26.0168 65.0166C25.4094 64.7686 24.7574 64.6485 24.1016 64.664C22.9835 64.664 22.0983 64.9232 21.4512 65.4521C21.1469 65.6855 20.9016 65.9873 20.7353 66.3332C20.5689 66.6791 20.4861 67.0593 20.4936 67.4432C20.4936 68.0706 20.7421 68.5839 21.239 68.9988C21.8574 69.4578 22.573 69.7682 23.3303 69.9062L26.5448 70.6476C27.6681 70.9069 28.6465 71.2699 29.4747 71.7417C30.2734 72.1788 30.943 72.819 31.4159 73.598C31.8817 74.3654 32.1147 75.335 32.1147 76.5017C32.1147 77.7824 31.7886 78.9179 31.1415 79.9031C30.4524 80.9177 29.4828 81.7088 28.3514 82.1794C27.1401 82.7238 25.6597 82.9986 23.91 82.9986C22.5952 82.9986 21.4461 82.8431 20.4677 82.532C19.5663 82.261 18.7259 81.8173 17.9934 81.2253C17.3614 80.6908 16.8497 80.0281 16.4922 79.2809ZM0.424591 79.1098C0.138969 78.3365 -0.00482983 77.518 0.00012375 76.6935H3.95491C3.96572 77.1846 4.09729 77.6655 4.33797 78.0935C4.57631 78.5006 4.92127 78.8346 5.3355 79.0594C5.74973 79.2843 6.21746 79.3913 6.68807 79.369C7.67159 79.369 8.39629 79.0839 8.87252 78.5187C9.34357 77.9483 9.58169 77.1446 9.58169 76.1024V61.8692H13.6762V75.9987C13.6762 78.2802 13.0603 80.012 11.8283 81.2098C10.6014 82.4024 8.90358 82.9986 6.72948 82.9986C5.72797 83.0168 4.73156 82.8516 3.78927 82.5112C2.99652 82.2079 2.27806 81.7375 1.68246 81.132C1.13049 80.5504 0.702507 79.8624 0.424591 79.1098ZM47.4835 70.8913V73.598C47.4835 74.9254 47.2816 76.035 46.8778 76.9217C46.534 77.7418 45.9536 78.4405 45.211 78.9283C44.4778 79.3716 43.6344 79.5981 42.7781 79.5816C41.9221 79.5964 41.0791 79.37 40.3452 78.9283C39.6081 78.4371 39.032 77.7391 38.6887 76.9217C38.254 75.8693 38.0476 74.7363 38.0831 73.598V70.8913C38.0831 69.5536 38.285 68.4491 38.6887 67.5677C39.032 66.7502 39.6081 66.0523 40.3452 65.561C41.0758 65.1099 41.92 64.8778 42.7781 64.8921C43.6943 64.8921 44.5019 65.1151 45.211 65.561C45.9536 66.0488 46.534 66.7475 46.8778 67.5677C47.2816 68.4491 47.4835 69.5536 47.4835 70.8913ZM51.6402 73.5824V70.9224C51.6402 68.9676 51.283 67.2877 50.579 65.8773C49.9129 64.505 48.8483 63.3663 47.5249 62.6107C46.2153 61.8536 44.6313 61.4699 42.7833 61.4699C40.9405 61.4699 39.3565 61.8536 38.021 62.6107C36.6971 63.3595 35.6333 64.4956 34.9721 65.8669C34.2629 67.2721 33.9109 68.9573 33.9109 70.9224V73.5824C33.9109 75.5269 34.2629 77.2068 34.9721 78.6276C35.6812 80.0327 36.6958 81.1164 38.021 81.8735C39.3565 82.6253 40.9405 82.9986 42.7833 82.9986C44.6313 82.9986 46.2153 82.6253 47.5301 81.8735C48.8552 81.1164 49.8698 80.0327 50.579 78.6276C51.283 77.2068 51.6402 75.5269 51.6402 73.5824ZM58.3178 68.7343V82.6046H54.4561V61.8692H57.8829L66.952 75.6617H67.1177V61.8692H71V82.6098H67.6043L58.4886 68.7343H58.3229H58.3178Z" fill="url(#paint0_linear_2_33)"/>
<defs>
<linearGradient id="paint0_linear_2_33" x1="42" y1="65.5" x2="46.5" y2="-13" gradientUnits="userSpaceOnUse">
<stop offset="0.00431825" stop-color="#FFFAA7"/>
<stop offset="0.9999" stop-color="#DF75EE"/>
</linearGradient>
</defs>
</svg>
