<svg width="133" height="83" viewBox="0 0 133 83" fill="none" xmlns="http://www.w3.org/2000/svg">
<path d="M124.444 0.111084H8.55556C6.36015 0.111084 4.25467 0.983206 2.70228 2.53559C1.1499 4.08798 0.277779 6.19346 0.277779 8.38886V74.6111C0.277779 76.8065 1.1499 78.912 2.70228 80.4644C4.25467 82.0167 6.36015 82.8889 8.55556 82.8889H124.444C126.64 82.8889 128.745 82.0167 130.298 80.4644C131.85 78.912 132.722 76.8065 132.722 74.6111V8.38886C132.722 6.19346 131.85 4.08798 130.298 2.53559C128.745 0.983206 126.64 0.111084 124.444 0.111084ZM124.444 74.6111H8.55556V8.38886H124.444V74.6111Z" fill="#202632"/>
<path d="M20.9722 20.8055H29.25V29.0833H20.9722V20.8055Z" fill="#202632"/>
<path d="M37.5278 20.8055H45.8056V29.0833H37.5278V20.8055Z" fill="#202632"/>
<path d="M54.0833 20.8055H62.3611V29.0833H54.0833V20.8055Z" fill="#202632"/>
<path d="M70.6389 20.8055H78.9167V29.0833H70.6389V20.8055Z" fill="#202632"/>
<path d="M87.1944 20.8055H95.4722V29.0833H87.1944V20.8055Z" fill="#202632"/>
<path d="M103.75 20.8055H112.028V29.0833H103.75V20.8055Z" fill="#202632"/>
<path d="M20.9722 37.3611H29.25V45.6389H20.9722V37.3611Z" fill="#202632"/>
<path d="M37.5278 37.3611H45.8056V45.6389H37.5278V37.3611Z" fill="#202632"/>
<path d="M54.0833 37.3611H62.3611V45.6389H54.0833V37.3611Z" fill="#202632"/>
<path d="M70.6389 37.3611H78.9167V45.6389H70.6389V37.3611Z" fill="#202632"/>
<path d="M87.1944 37.3611H95.4722V45.6389H87.1944V37.3611Z" fill="#202632"/>
<path d="M103.75 37.3611H112.028V45.6389H103.75V37.3611Z" fill="#202632"/>
<path d="M103.75 58.0555H111.779V66.3333H103.75V58.0555Z" fill="#202632"/>
<path d="M20.9722 58.0555H29.25V66.3333H20.9722V58.0555Z" fill="#202632"/>
<path d="M38.0658 58.0555H94.9756V66.3333H38.0658V58.0555Z" fill="#202632"/>
</svg>
